<?xml version="1.0" encoding="utf-8"?>
<!-- Generator: Adobe Illustrator 16.0.4, SVG Export Plug-In . SVG Version: 6.00 Build 0)  -->
<!DOCTYPE svg PUBLIC "-//W3C//DTD SVG 1.1//EN" "http://www.w3.org/Graphics/SVG/1.1/DTD/svg11.dtd">
<svg version="1.1" id="Layer_1" xmlns="http://www.w3.org/2000/svg" xmlns:xlink="http://www.w3.org/1999/xlink" x="0px" y="0px"
	 width="16px" height="16px" viewBox="0 0 16 16" enable-background="new 0 0 16 16" xml:space="preserve">
<g id="smartphone">
	<path fill="#727272" d="M12.767,0.632c0-0.347-0.281-0.628-0.628-0.628H3.861c-0.348,0-0.628,0.281-0.628,0.628v14.723
		c0,0.346,0.28,0.627,0.628,0.627h8.277c0.347,0,0.628-0.281,0.628-0.627V0.632z M7.996,15.32c-0.409,0-0.739-0.33-0.739-0.738
		c0-0.407,0.33-0.738,0.739-0.738c0.407,0,0.737,0.331,0.737,0.738C8.733,14.99,8.403,15.32,7.996,15.32z M11.242,12.177H4.757
		V2.064h6.485V12.177z"/>
</g>
</svg>
